<svg xmlns="http://www.w3.org/2000/svg" viewBox="0 0 256 256" width="256" height="256">
  <rect width="256" height="256" rx="16" ry="16" fill="#08080f"/>

  <line x1="128" y1="28" x2="128" y2="228" stroke="#0e7490" stroke-width="2"/>
  <line x1="28" y1="128" x2="228" y2="128" stroke="#0e7490" stroke-width="2"/>

  <line x1="78" y1="28" x2="78" y2="128" stroke="#06b6d4" stroke-width="1.5"/>
  <line x1="28" y1="78" x2="128" y2="78" stroke="#06b6d4" stroke-width="1.5"/>
  <line x1="178" y1="128" x2="178" y2="228" stroke="#06b6d4" stroke-width="1.5"/>
  <line x1="128" y1="178" x2="228" y2="178" stroke="#06b6d4" stroke-width="1.5"/>

  <line x1="53" y1="28" x2="53" y2="78" stroke="#22d3ee" stroke-width="1"/>
  <line x1="28" y1="53" x2="78" y2="53" stroke="#22d3ee" stroke-width="1"/>
  <line x1="203" y1="178" x2="203" y2="228" stroke="#22d3ee" stroke-width="1"/>
  <line x1="178" y1="203" x2="228" y2="203" stroke="#22d3ee" stroke-width="1"/>

  <rect x="29" y="29" width="24" height="24" fill="#22d3ee" opacity="0.2" rx="2"/>
  <rect x="54" y="29" width="24" height="24" fill="#22d3ee" opacity="0.1" rx="2"/>
  <rect x="29" y="54" width="24" height="24" fill="#22d3ee" opacity="0.1" rx="2"/>
  <rect x="204" y="204" width="24" height="24" fill="#22d3ee" opacity="0.2" rx="2"/>
  <rect x="179" y="204" width="24" height="24" fill="#22d3ee" opacity="0.1" rx="2"/>
  <rect x="204" y="179" width="24" height="24" fill="#22d3ee" opacity="0.1" rx="2"/>

  <rect x="79" y="29" width="49" height="49" fill="#06b6d4" opacity="0.06" rx="2"/>
  <rect x="29" y="79" width="49" height="49" fill="#06b6d4" opacity="0.06" rx="2"/>
  <rect x="129" y="179" width="49" height="49" fill="#06b6d4" opacity="0.06" rx="2"/>
  <rect x="179" y="129" width="49" height="49" fill="#06b6d4" opacity="0.06" rx="2"/>

  <rect x="129" y="29" width="99" height="99" fill="#0e7490" opacity="0.03" rx="2"/>
  <rect x="29" y="129" width="99" height="99" fill="#0e7490" opacity="0.03" rx="2"/>
</svg>
