<svg xmlns="http://www.w3.org/2000/svg" viewBox="0 0 256 256" width="256" height="256">
  <rect width="256" height="256" fill="#0f1729"/>

  <g stroke="#3b82f6" stroke-width="0.5" opacity="0.25">
    <line x1="28" y1="28" x2="28" y2="228"/>
    <line x1="228" y1="28" x2="228" y2="228"/>
    <line x1="28" y1="28" x2="228" y2="28"/>
    <line x1="28" y1="228" x2="228" y2="228"/>
  </g>

  <line x1="128" y1="28" x2="128" y2="228" stroke="#3b82f6" stroke-width="1.2" opacity="0.4"/>
  <line x1="28" y1="128" x2="228" y2="128" stroke="#3b82f6" stroke-width="1.2" opacity="0.4"/>

  <line x1="28" y1="78" x2="128" y2="78" stroke="#3b82f6" stroke-width="0.8" opacity="0.3"/>
  <line x1="78" y1="28" x2="78" y2="128" stroke="#3b82f6" stroke-width="0.8" opacity="0.3"/>

  <line x1="128" y1="178" x2="228" y2="178" stroke="#3b82f6" stroke-width="0.8" opacity="0.3"/>
  <line x1="178" y1="128" x2="178" y2="228" stroke="#3b82f6" stroke-width="0.8" opacity="0.3"/>

  <line x1="28" y1="178" x2="128" y2="178" stroke="#3b82f6" stroke-width="0.6" opacity="0.2"/>
  <line x1="78" y1="128" x2="78" y2="228" stroke="#3b82f6" stroke-width="0.6" opacity="0.2"/>

  <circle cx="52" cy="52" r="4.5" fill="#60a5fa"/>
  <circle cx="98" cy="45" r="4.5" fill="#60a5fa"/>
  <circle cx="68" cy="105" r="4" fill="#60a5fa" opacity="0.85"/>
  <circle cx="108" cy="95" r="4" fill="#60a5fa" opacity="0.85"/>

  <circle cx="145" cy="55" r="4" fill="#60a5fa" opacity="0.7"/>
  <circle cx="195" cy="72" r="3.5" fill="#60a5fa" opacity="0.6"/>
  <circle cx="160" cy="105" r="3.5" fill="#60a5fa" opacity="0.6"/>

  <circle cx="50" cy="150" r="3.5" fill="#60a5fa" opacity="0.55"/>
  <circle cx="95" cy="200" r="3.5" fill="#60a5fa" opacity="0.55"/>
  <circle cx="60" cy="210" r="3" fill="#60a5fa" opacity="0.45"/>

  <circle cx="155" cy="155" r="4" fill="#60a5fa" opacity="0.75"/>
  <circle cx="200" cy="145" r="4" fill="#60a5fa" opacity="0.75"/>
  <circle cx="148" cy="205" r="3.5" fill="#60a5fa" opacity="0.55"/>
  <circle cx="210" cy="200" r="3.5" fill="#60a5fa" opacity="0.55"/>

  <rect x="130" y="130" width="96" height="96" fill="#f59e0b" fill-opacity="0.07" stroke="#f59e0b" stroke-width="1.5" stroke-dasharray="6 4" stroke-opacity="0.6"/>
</svg>
